<mxfile host="app.diagrams.net" agent="Mozilla/5.0 (Macintosh; Intel Mac OS X 10.15; rv:141.0) Gecko/20100101 Firefox/141.0" version="28.0.7">
  <diagram name="Page-1" id="fQAS1CwPzlaBgqHVDmfY">
    <mxGraphModel dx="1376" dy="799" grid="1" gridSize="10" guides="1" tooltips="1" connect="1" arrows="1" fold="1" page="1" pageScale="1" pageWidth="850" pageHeight="1100" math="0" shadow="0">
      <root>
        <mxCell id="0" />
        <mxCell id="1" parent="0" />
        <mxCell id="_PsJVDYqyXAVC82R-pF2-1" value="User Flow" style="text;html=1;align=center;verticalAlign=middle;whiteSpace=wrap;rounded=0;" parent="1" vertex="1">
          <mxGeometry x="395" y="40" width="60" height="30" as="geometry" />
        </mxCell>
        <mxCell id="_PsJVDYqyXAVC82R-pF2-14" style="edgeStyle=orthogonalEdgeStyle;rounded=0;orthogonalLoop=1;jettySize=auto;html=1;" parent="1" source="_PsJVDYqyXAVC82R-pF2-2" target="_PsJVDYqyXAVC82R-pF2-3" edge="1">
          <mxGeometry relative="1" as="geometry" />
        </mxCell>
        <mxCell id="_PsJVDYqyXAVC82R-pF2-2" value="&lt;font style=&quot;font-size: 22px;&quot;&gt;&lt;b&gt;Stretch Goals&lt;/b&gt;&lt;/font&gt;" style="rounded=0;whiteSpace=wrap;html=1;fillColor=#dae8fc;strokeColor=#6c8ebf;verticalAlign=bottom;" parent="1" vertex="1">
          <mxGeometry x="80" y="360" width="720" height="260" as="geometry" />
        </mxCell>
        <mxCell id="_PsJVDYqyXAVC82R-pF2-3" value="&lt;b&gt;&lt;font style=&quot;font-size: 22px;&quot;&gt;MVP&lt;/font&gt;&lt;/b&gt;" style="rounded=0;whiteSpace=wrap;html=1;fillColor=#d5e8d4;strokeColor=#82b366;verticalAlign=top;" parent="1" vertex="1">
          <mxGeometry x="80" y="120" width="720" height="240" as="geometry" />
        </mxCell>
        <mxCell id="_PsJVDYqyXAVC82R-pF2-6" value="" style="edgeStyle=orthogonalEdgeStyle;rounded=0;orthogonalLoop=1;jettySize=auto;html=1;" parent="1" source="_PsJVDYqyXAVC82R-pF2-4" target="_PsJVDYqyXAVC82R-pF2-5" edge="1">
          <mxGeometry relative="1" as="geometry" />
        </mxCell>
        <mxCell id="_PsJVDYqyXAVC82R-pF2-4" value="User can toggle between URL input or file input" style="rounded=1;whiteSpace=wrap;html=1;" parent="1" vertex="1">
          <mxGeometry x="110" y="150" width="120" height="60" as="geometry" />
        </mxCell>
        <mxCell id="_PsJVDYqyXAVC82R-pF2-8" value="" style="edgeStyle=orthogonalEdgeStyle;rounded=0;orthogonalLoop=1;jettySize=auto;html=1;" parent="1" source="_PsJVDYqyXAVC82R-pF2-5" target="_PsJVDYqyXAVC82R-pF2-7" edge="1">
          <mxGeometry relative="1" as="geometry" />
        </mxCell>
        <mxCell id="_PsJVDYqyXAVC82R-pF2-5" value="Once chosen, the user inputs the image/URL" style="whiteSpace=wrap;html=1;rounded=1;" parent="1" vertex="1">
          <mxGeometry x="110" y="260" width="120" height="60" as="geometry" />
        </mxCell>
        <mxCell id="_PsJVDYqyXAVC82R-pF2-10" value="" style="edgeStyle=orthogonalEdgeStyle;rounded=0;orthogonalLoop=1;jettySize=auto;html=1;" parent="1" source="_PsJVDYqyXAVC82R-pF2-7" target="_PsJVDYqyXAVC82R-pF2-9" edge="1">
          <mxGeometry relative="1" as="geometry" />
        </mxCell>
        <mxCell id="_PsJVDYqyXAVC82R-pF2-7" value="Have the image displayed once loaded" style="whiteSpace=wrap;html=1;rounded=1;" parent="1" vertex="1">
          <mxGeometry x="270" y="260" width="120" height="60" as="geometry" />
        </mxCell>
        <mxCell id="_PsJVDYqyXAVC82R-pF2-12" value="" style="edgeStyle=orthogonalEdgeStyle;rounded=0;orthogonalLoop=1;jettySize=auto;html=1;" parent="1" source="_PsJVDYqyXAVC82R-pF2-9" target="_PsJVDYqyXAVC82R-pF2-11" edge="1">
          <mxGeometry relative="1" as="geometry" />
        </mxCell>
        <mxCell id="_PsJVDYqyXAVC82R-pF2-13" value="" style="edgeStyle=orthogonalEdgeStyle;rounded=0;orthogonalLoop=1;jettySize=auto;html=1;entryX=0.5;entryY=0;entryDx=0;entryDy=0;" parent="1" source="_PsJVDYqyXAVC82R-pF2-9" target="_PsJVDYqyXAVC82R-pF2-15" edge="1">
          <mxGeometry relative="1" as="geometry">
            <Array as="points">
              <mxPoint x="510" y="340" />
              <mxPoint x="318" y="340" />
            </Array>
          </mxGeometry>
        </mxCell>
        <mxCell id="_PsJVDYqyXAVC82R-pF2-16" value="" style="edgeStyle=orthogonalEdgeStyle;rounded=0;orthogonalLoop=1;jettySize=auto;html=1;entryX=0.5;entryY=0;entryDx=0;entryDy=0;" parent="1" source="_PsJVDYqyXAVC82R-pF2-9" target="_PsJVDYqyXAVC82R-pF2-17" edge="1">
          <mxGeometry relative="1" as="geometry" />
        </mxCell>
        <mxCell id="_PsJVDYqyXAVC82R-pF2-9" value="Click &#39;Generate&#39; to generate the caption via AI" style="whiteSpace=wrap;html=1;rounded=1;" parent="1" vertex="1">
          <mxGeometry x="450" y="260" width="120" height="60" as="geometry" />
        </mxCell>
        <mxCell id="_PsJVDYqyXAVC82R-pF2-11" value="AI API returns the caption text and displays it in a copyable section" style="whiteSpace=wrap;html=1;rounded=1;" parent="1" vertex="1">
          <mxGeometry x="630" y="260" width="120" height="60" as="geometry" />
        </mxCell>
        <mxCell id="_PsJVDYqyXAVC82R-pF2-15" value="&lt;div&gt;Allow the user to select from one of four pre-set buttons which change the tone of the caption:&lt;/div&gt;&lt;div&gt;&lt;br&gt;&lt;/div&gt;&lt;div&gt;- Detailed&lt;/div&gt;&lt;div&gt;- Brief&lt;/div&gt;&lt;div&gt;- Fun&lt;/div&gt;&lt;div&gt;- Professional&lt;/div&gt;" style="rounded=1;whiteSpace=wrap;html=1;verticalAlign=top;" parent="1" vertex="1">
          <mxGeometry x="240" y="380" width="155" height="160" as="geometry" />
        </mxCell>
        <mxCell id="_PsJVDYqyXAVC82R-pF2-17" value="Allow the user to enter up to 100 words to describe the tone of the caption." style="rounded=1;whiteSpace=wrap;html=1;" parent="1" vertex="1">
          <mxGeometry x="425" y="380" width="155" height="160" as="geometry" />
        </mxCell>
        <mxCell id="_PsJVDYqyXAVC82R-pF2-18" value="" style="rounded=0;whiteSpace=wrap;html=1;" parent="1" vertex="1">
          <mxGeometry x="50" y="680" width="760" height="580" as="geometry" />
        </mxCell>
        <mxCell id="_PsJVDYqyXAVC82R-pF2-19" value="Image Caption Generator" style="text;html=1;align=center;verticalAlign=middle;whiteSpace=wrap;rounded=0;fontStyle=1;fontSize=24;" parent="1" vertex="1">
          <mxGeometry x="300" y="700" width="260" height="30" as="geometry" />
        </mxCell>
        <mxCell id="_PsJVDYqyXAVC82R-pF2-20" value="http://www.test.com/image.png" style="rounded=0;html=1;align=left;" parent="1" vertex="1">
          <mxGeometry x="283" y="870" width="197" height="30" as="geometry" />
        </mxCell>
        <mxCell id="_PsJVDYqyXAVC82R-pF2-24" value="Image area w placeholder" style="rounded=0;whiteSpace=wrap;html=1;" parent="1" vertex="1">
          <mxGeometry x="280" y="910" width="340" height="160" as="geometry" />
        </mxCell>
        <mxCell id="_PsJVDYqyXAVC82R-pF2-27" value="Fun" style="rounded=1;whiteSpace=wrap;html=1;" parent="1" vertex="1">
          <mxGeometry x="304" y="790" width="56" height="20" as="geometry" />
        </mxCell>
        <mxCell id="_PsJVDYqyXAVC82R-pF2-28" value="Professional" style="rounded=1;whiteSpace=wrap;html=1;fillColor=#f5f5f5;fontColor=#333333;strokeColor=#666666;" parent="1" vertex="1">
          <mxGeometry x="374" y="790" width="81" height="20" as="geometry" />
        </mxCell>
        <mxCell id="_PsJVDYqyXAVC82R-pF2-31" value="&lt;div align=&quot;left&quot;&gt;Text output&lt;/div&gt;" style="rounded=0;whiteSpace=wrap;html=1;align=left;verticalAlign=top;" parent="1" vertex="1">
          <mxGeometry x="280" y="1080" width="250" height="70" as="geometry" />
        </mxCell>
        <mxCell id="_PsJVDYqyXAVC82R-pF2-32" value="" style="shape=image;html=1;verticalAlign=top;verticalLabelPosition=bottom;labelBackgroundColor=#ffffff;imageAspect=0;aspect=fixed;image=https://icons.diagrams.net/icon-cache1/Files-2387/Copy-1031.svg" parent="1" vertex="1">
          <mxGeometry x="496" y="1100" width="20" height="20" as="geometry" />
        </mxCell>
        <mxCell id="_PsJVDYqyXAVC82R-pF2-33" value="Reset" style="rounded=1;whiteSpace=wrap;html=1;" parent="1" vertex="1">
          <mxGeometry x="537" y="1120" width="78" height="25" as="geometry" />
        </mxCell>
        <mxCell id="tWbKiSJsA4TAK6pQsdtj-2" value="Generate" style="rounded=1;whiteSpace=wrap;html=1;" vertex="1" parent="1">
          <mxGeometry x="537" y="1080" width="80" height="30" as="geometry" />
        </mxCell>
        <mxCell id="tWbKiSJsA4TAK6pQsdtj-4" value="" style="html=1;verticalLabelPosition=bottom;labelBackgroundColor=#ffffff;verticalAlign=top;shadow=0;dashed=0;strokeWidth=1;shape=mxgraph.ios7ui.slider;barPos=20;strokeColor=#0080f0;strokeColor2=#a0a0a0;" vertex="1" parent="1">
          <mxGeometry x="330" y="760" width="150" height="15" as="geometry" />
        </mxCell>
        <mxCell id="tWbKiSJsA4TAK6pQsdtj-5" value="10" style="rounded=0;whiteSpace=wrap;html=1;" vertex="1" parent="1">
          <mxGeometry x="496" y="755.75" width="28" height="23.5" as="geometry" />
        </mxCell>
        <mxCell id="tWbKiSJsA4TAK6pQsdtj-6" value="words or less" style="text;html=1;align=center;verticalAlign=middle;whiteSpace=wrap;rounded=0;" vertex="1" parent="1">
          <mxGeometry x="524" y="753" width="86" height="30" as="geometry" />
        </mxCell>
        <mxCell id="tWbKiSJsA4TAK6pQsdtj-7" value="&lt;span data-end=&quot;202&quot; data-start=&quot;192&quot;&gt;Formal&lt;/span&gt;" style="rounded=1;whiteSpace=wrap;html=1;" vertex="1" parent="1">
          <mxGeometry x="469.5" y="790" width="50.5" height="20" as="geometry" />
        </mxCell>
        <mxCell id="tWbKiSJsA4TAK6pQsdtj-8" value="&lt;span data-end=&quot;537&quot; data-start=&quot;526&quot;&gt;Playful&lt;/span&gt;" style="rounded=1;whiteSpace=wrap;html=1;" vertex="1" parent="1">
          <mxGeometry x="530" y="790" width="50.5" height="20" as="geometry" />
        </mxCell>
        <mxCell id="tWbKiSJsA4TAK6pQsdtj-9" value="Cheeky" style="rounded=1;whiteSpace=wrap;html=1;fillColor=#f5f5f5;fontColor=#333333;strokeColor=#666666;" vertex="1" parent="1">
          <mxGeometry x="279.5" y="817" width="50.5" height="20" as="geometry" />
        </mxCell>
        <mxCell id="tWbKiSJsA4TAK6pQsdtj-10" value="&lt;span data-end=&quot;709&quot; data-start=&quot;696&quot;&gt;Wholesome&lt;/span&gt;" style="rounded=1;whiteSpace=wrap;html=1;" vertex="1" parent="1">
          <mxGeometry x="339.5" y="817" width="70.5" height="20" as="geometry" />
        </mxCell>
        <mxCell id="tWbKiSJsA4TAK6pQsdtj-11" value="&lt;span data-end=&quot;857&quot; data-start=&quot;847&quot;&gt;Poetic&lt;/span&gt;" style="rounded=1;whiteSpace=wrap;html=1;" vertex="1" parent="1">
          <mxGeometry x="420" y="817" width="50" height="20" as="geometry" />
        </mxCell>
        <mxCell id="tWbKiSJsA4TAK6pQsdtj-12" value="Meme-y" style="rounded=1;whiteSpace=wrap;html=1;" vertex="1" parent="1">
          <mxGeometry x="477.5" y="817" width="50" height="20" as="geometry" />
        </mxCell>
        <mxCell id="tWbKiSJsA4TAK6pQsdtj-13" value="Over-the-top" style="rounded=1;whiteSpace=wrap;html=1;" vertex="1" parent="1">
          <mxGeometry x="537" y="817" width="70" height="20" as="geometry" />
        </mxCell>
        <mxCell id="tWbKiSJsA4TAK6pQsdtj-14" value="" style="rounded=0;html=1;align=left;" vertex="1" parent="1">
          <mxGeometry x="520" y="870" width="97" height="30" as="geometry" />
        </mxCell>
        <mxCell id="tWbKiSJsA4TAK6pQsdtj-15" value="" style="html=1;verticalLabelPosition=bottom;align=center;labelBackgroundColor=#ffffff;verticalAlign=top;strokeWidth=2;strokeColor=#333333;shadow=0;dashed=0;shape=mxgraph.ios7.icons.share;" vertex="1" parent="1">
          <mxGeometry x="527.5" y="873.25" width="21" height="23.5" as="geometry" />
        </mxCell>
        <mxCell id="tWbKiSJsA4TAK6pQsdtj-16" value="Image URL" style="text;html=1;align=center;verticalAlign=middle;whiteSpace=wrap;rounded=0;fontSize=10;" vertex="1" parent="1">
          <mxGeometry x="277.88" y="847.25" width="65.25" height="30" as="geometry" />
        </mxCell>
        <mxCell id="tWbKiSJsA4TAK6pQsdtj-17" value="File upload" style="text;html=1;align=center;verticalAlign=middle;whiteSpace=wrap;rounded=0;fontSize=10;" vertex="1" parent="1">
          <mxGeometry x="516" y="847.25" width="65.25" height="30" as="geometry" />
        </mxCell>
        <mxCell id="tWbKiSJsA4TAK6pQsdtj-18" value="OR" style="text;html=1;align=center;verticalAlign=middle;whiteSpace=wrap;rounded=0;fontSize=10;" vertex="1" parent="1">
          <mxGeometry x="467.5" y="872.25" width="65.25" height="30" as="geometry" />
        </mxCell>
      </root>
    </mxGraphModel>
  </diagram>
</mxfile>
